<?xml version="1.0" standalone="no"?>
<!DOCTYPE svg PUBLIC "-//W3C//DTD SVG 20010904//EN"
 "http://www.w3.org/TR/2001/REC-SVG-20010904/DTD/svg10.dtd">
<svg version="1.0" xmlns="http://www.w3.org/2000/svg"
 width="165.000000pt" height="165.000000pt" viewBox="0 0 165.000000 165.000000"
 preserveAspectRatio="xMidYMid meet">
<metadata>
Created by potrace 1.11, written by Peter Selinger 2001-2013
</metadata>
<g transform="translate(0.000000,165.000000) scale(0.100000,-0.100000)"
fill="#000000" stroke="none">
<path d="M770 1359 c-204 -18 -370 -140 -456 -336 -29 -66 -38 -112 -37 -210
0 -140 57 -270 163 -374 109 -108 212 -148 377 -149 285 -1 514 217 531 505 6
104 -10 177 -59 274 -77 155 -226 265 -386 287 -26 3 -50 7 -53 8 -3 1 -39 -1
-80 -5z m118 -112 c-9 -7 -30 -20 -47 -29 -36 -20 -42 -56 -13 -80 22 -20 38
-17 126 26 40 20 78 36 83 36 13 0 79 -57 73 -63 -3 -3 -113 -57 -245 -122
-132 -64 -248 -123 -257 -132 -35 -31 -17 -83 28 -83 12 0 141 58 286 130
l263 130 18 -36 c10 -19 17 -40 15 -45 -2 -6 -33 -25 -68 -42 -89 -44 -110
-90 -54 -116 21 -9 34 -6 84 19 33 17 62 30 65 30 4 0 5 -30 4 -67 -3 -109
-50 -211 -136 -301 -23 -24 -124 -81 -172 -97 -53 -17 -129 -24 -180 -16 -32
6 -20 13 182 113 184 91 217 111 223 133 9 35 -21 68 -53 60 -12 -3 -131 -59
-264 -125 -133 -66 -247 -120 -254 -120 -7 0 -28 13 -48 28 l-36 29 214 106
c181 89 215 110 221 132 7 28 -7 50 -37 58 -12 3 -98 -34 -240 -104 -121 -60
-222 -109 -224 -109 -3 0 -14 18 -25 40 l-20 40 50 25 c57 29 74 63 46 94 -19
21 -48 21 -84 2 -27 -14 -29 -13 -32 14 -8 72 -9 71 138 142 153 74 172 87
172 118 0 27 -29 54 -53 50 -9 -2 -60 -24 -113 -49 -52 -25 -97 -46 -99 -46
-12 0 43 76 83 116 45 44 160 108 212 117 14 2 61 5 105 5 65 1 77 -1 63 -11z"/>
<path d="M1291 1276 l-53 -11 31 -35 c17 -19 31 -38 31 -43 0 -4 39 -4 88 -1
99 7 162 -10 162 -44 0 -24 -47 -97 -98 -150 l-41 -43 7 -62 8 -62 85 86 c161
161 183 291 60 351 -52 25 -189 32 -280 14z"/>
<path d="M128 681 c-126 -134 -158 -238 -94 -306 19 -20 49 -38 76 -45 48 -13
171 -16 230 -6 63 11 90 18 90 21 0 3 -19 22 -42 44 -30 27 -49 38 -63 35 -46
-11 -166 -10 -194 2 -50 21 -39 61 44 159 l57 67 -14 55 -13 56 -77 -82z"/>
</g>
</svg>
